<svg id="Group_41" data-name="Group 41" xmlns="http://www.w3.org/2000/svg" width="36.099" height="38.099" viewBox="0 0 36.099 38.099">
  <path id="Path_4" data-name="Path 4" d="M12.575,19.151a1.643,1.643,0,0,0,1.644-1.644V14.219h3.288a1.644,1.644,0,0,0,0-3.288H14.219V7.644a1.644,1.644,0,0,0-3.288,0v3.288H7.644a1.644,1.644,0,1,0,0,3.288h3.288v3.288A1.643,1.643,0,0,0,12.575,19.151Z" transform="translate(5.474 6.474)"/>
  <path id="Path_5" data-name="Path 5" d="M20.049,2C10.1,2,2,10.546,2,21.05S10.1,40.1,20.049,40.1a17.3,17.3,0,0,0,9.28-2.729A2.456,2.456,0,0,0,30.1,34.1a2.184,2.184,0,0,0-3.1-.812,12.964,12.964,0,0,1-6.954,2.048c-7.466,0-13.537-6.408-13.537-14.287S12.584,6.762,20.049,6.762,33.587,13.17,33.587,21.05a14.864,14.864,0,0,1-1.943,7.341,2.459,2.459,0,0,0,.772,3.267,2.2,2.2,0,0,0,3.1-.814A19.822,19.822,0,0,0,38.1,21.05C38.1,10.546,30,2,20.049,2Z" transform="translate(-2 -2)"/>
</svg>
