<svg id="question_answer_black_24dp" xmlns="http://www.w3.org/2000/svg" width="91.359" height="82.55" viewBox="0 0 91.359 82.55">
  <path id="Path_320" data-name="Path 320" d="M0,0H91.359V82.55H0Z" fill="none"/>
  <path id="Path_321" data-name="Path 321" d="M34.018,6.348V21.567H9.807L8.354,22.85,6.926,24.111V6.348H34.018M36.48,2H4.463A2.339,2.339,0,0,0,2,4.174V34.612l9.852-8.7H36.48a2.339,2.339,0,0,0,2.463-2.174V4.174A2.339,2.339,0,0,0,36.48,2Zm12.314,8.7H43.869V30.264H11.852v4.348a2.339,2.339,0,0,0,2.463,2.174H41.406l9.852,8.7V12.871A2.339,2.339,0,0,0,48.795,10.7Z" transform="translate(19.051 17.534)" fill="#f26722"/>
</svg>
