<svg xmlns="http://www.w3.org/2000/svg" width="25.993" height="16.721" viewBox="0 0 25.993 16.721">
  <path id="Path_840" data-name="Path 840" d="M28.22,50.714a2.622,2.622,0,0,0-1.938-.76,2.6,2.6,0,0,0-1.886.854,2.711,2.711,0,0,0-.74,1.938,2.652,2.652,0,0,0,.656,1.646c-1.042,1.292-1.99,1.9-2.9,1.823q-1.75-.141-3.709-3.625a2.712,2.712,0,0,0,.927-1.344,2.846,2.846,0,0,0-.3-2.271,2.491,2.491,0,0,0-2.313-1.188H16a2.491,2.491,0,0,0-2.313,1.188,2.894,2.894,0,0,0-.3,2.271,2.759,2.759,0,0,0,.927,1.344c-1.3,2.313-2.542,3.531-3.709,3.625-.906.073-1.854-.531-2.9-1.823a2.714,2.714,0,0,0,.656-1.646A2.722,2.722,0,0,0,5.74,49.953a2.723,2.723,0,0,0-1.938.76A2.653,2.653,0,0,0,3,52.631a2.7,2.7,0,0,0,2.469,2.677l.781,7.615A1.754,1.754,0,0,0,8,64.506h15.99a1.746,1.746,0,0,0,1.75-1.583l.781-7.615a2.674,2.674,0,0,0,2.469-2.677A2.507,2.507,0,0,0,28.22,50.714Zm-1.875,3.573c-.063,0-.135-.01-.2-.01a.521.521,0,0,0-.385.1.5.5,0,0,0-.188.354l-.823,8.084a.733.733,0,0,1-.729.656h-16a.733.733,0,0,1-.729-.656l-.823-8.084a.542.542,0,0,0-.188-.354.531.531,0,0,0-.323-.115H5.9a1.2,1.2,0,0,1-.2.01A1.652,1.652,0,0,1,4.052,52.62a1.623,1.623,0,0,1,.5-1.177,1.651,1.651,0,0,1,1.188-.469,1.626,1.626,0,0,1,1.156.531,1.619,1.619,0,0,1-.177,2.417.523.523,0,0,0-.094.719c1.385,1.844,2.719,2.688,4.073,2.594,1.625-.125,3.188-1.625,4.761-4.584a.481.481,0,0,0,.031-.4.5.5,0,0,0-.26-.3,1.692,1.692,0,0,1-.854-1,1.794,1.794,0,0,1,.208-1.458,1.485,1.485,0,0,1,1.365-.677.254.254,0,0,0,.125,0,1.465,1.465,0,0,1,1.365.677,1.8,1.8,0,0,1,.208,1.458,1.663,1.663,0,0,1-.854,1,.5.5,0,0,0-.26.3.518.518,0,0,0,.031.4c1.573,2.958,3.136,4.459,4.761,4.584,1.365.1,2.7-.74,4.073-2.594a.523.523,0,0,0-.094-.719,1.651,1.651,0,0,1-.635-1.229,1.691,1.691,0,0,1,1.615-1.719h0a1.657,1.657,0,0,1,.063,3.313Z" transform="translate(-3 -47.785)" fill="#d7d7d7"/>
</svg>
