<svg id="Group_2" data-name="Group 2" xmlns="http://www.w3.org/2000/svg" width="17.339" height="20.228" viewBox="0 0 17.339 20.228">
  <g id="Group_1" data-name="Group 1">
    <path id="Path_1" data-name="Path 1" d="M44.524,47.3h2.405a.484.484,0,0,0,.483-.478v-8.2a2.672,2.672,0,0,0-.684-1.642l-5.716-5.716a.486.486,0,0,0-.687,0L34.61,36.986a2.677,2.677,0,0,0-.684,1.642l0,8.67C33.922,47.562,44.252,47.3,44.524,47.3Zm-10.6,1.927A1.923,1.923,0,0,1,32,47.3V38.8a5.346,5.346,0,0,1,1.364-3.295l5.941-5.941a1.928,1.928,0,0,1,2.728,0l5.941,5.941A5.337,5.337,0,0,1,49.339,38.8v8.5a1.926,1.926,0,0,1-1.922,1.931Z" transform="translate(-32 -29.001)"/>
  </g>
</svg>
