<svg xmlns="http://www.w3.org/2000/svg" width="19.5" height="19.5" viewBox="0 0 19.5 19.5">
  <g id="Group_8363" data-name="Group 8363" transform="translate(-2.25 -2.25)" opacity="0.5">
    <path id="Path_412" data-name="Path 412" d="M15,21H9V12.6a.6.6,0,0,1,.6-.6h4.8a.6.6,0,0,1,.6.6Z" fill="none" stroke="#000" stroke-linecap="round" stroke-linejoin="round" stroke-width="1.5"/>
    <path id="Path_413" data-name="Path 413" d="M20.4,21H15V18.1a.6.6,0,0,1,.6-.6h4.8a.6.6,0,0,1,.6.6v2.3A.6.6,0,0,1,20.4,21Z" fill="none" stroke="#000" stroke-linecap="round" stroke-linejoin="round" stroke-width="1.5"/>
    <path id="Path_414" data-name="Path 414" d="M9,21V16.1a.6.6,0,0,0-.6-.6H3.6a.6.6,0,0,0-.6.6v4.3a.6.6,0,0,0,.6.6Z" fill="none" stroke="#000" stroke-linecap="round" stroke-linejoin="round" stroke-width="1.5"/>
    <path id="Path_415" data-name="Path 415" d="M10.806,5.113l.909-1.928a.312.312,0,0,1,.571,0l.909,1.928,2.033.311a.337.337,0,0,1,.176.568l-1.471,1.5L14.28,9.61a.321.321,0,0,1-.462.351L12,8.96l-1.818,1A.321.321,0,0,1,9.72,9.61l.347-2.118L8.6,5.992a.337.337,0,0,1,.176-.568Z" fill="none" stroke="#000" stroke-linecap="round" stroke-linejoin="round" stroke-width="1.5"/>
  </g>
</svg>
