<svg xmlns="http://www.w3.org/2000/svg" viewBox="0 0 462.5 462.5"><defs><style>.cls-1,.cls-2,.cls-4,.cls-5{fill:#f26722;}.cls-1,.cls-2,.cls-5{stroke:#faf3e4;stroke-miterlimit:10;}.cls-1{stroke-linecap:round;stroke-width:2px;}.cls-2{stroke-width:4.01px;}.cls-3{fill:#faf3e4;}.cls-5{stroke-width:2.4px;}</style></defs><g id="Layer_2" data-name="Layer 2"><g id="Layer_1-2" data-name="Layer 1"><circle class="cls-1" cx="231.25" cy="231.25" r="230.25"/><path class="cls-2" d="M128.71,196.67c11.24-21.4-12.5-53-36.78-55.27-20.4-2.53-42,19.17-28.92,42.84C78.67,213.79,119,215.54,128.71,196.67Z"/><path class="cls-2" d="M284.53,154.83c23.16,6.91,49.6-22.48,47.16-46.74C330.23,87.58,304.79,70.6,284.07,88,258.1,109,264.14,148.89,284.53,154.83Z"/><path class="cls-3" d="M323.12,136.58c-16.63-9.1-35.83-15.32-55.88-18.44-37.41-5.79-77.76-.75-109.82,16.74a158.49,158.49,0,0,0-35,25.32,127.58,127.58,0,0,0-31.28,46.94c-20,53.47,2.55,112.66,60,133.19,71.58,28,212.29-16.76,225.38-102C384.74,191.81,360.42,157,323.12,136.58Zm-16,176c-6.57,10-22.5,4.53-28.55-.15-.75-.58-1.47-1.2-2.16-1.84-36.75,1.33-80.7-33.75-79.65-35.76.88-1.68,46.31,31.24,84.36,21.78,27.89-6.93,22-42.74,32.23-64.77l-13,65.29C305.83,300.78,310.59,307.29,307.08,312.61Z"/><path class="cls-3" d="M197.66,225.86c-4.48,1.27-6.21-5.72-1.77-7S202.11,224.6,197.66,225.86Z"/><path class="cls-3" d="M207.41,219.63c-4.48,1.28-6.21-5.72-1.77-7S211.86,218.37,207.41,219.63Z"/><path class="cls-3" d="M287.5,201.48c-4.48,1.27-6.22-5.72-1.77-7S292,200.21,287.5,201.48Z"/><path class="cls-3" d="M298.17,190.38c-4.48,1.27-6.22-5.72-1.77-7S302.62,189.11,298.17,190.38Z"/><path class="cls-4" d="M182.15,165.4c-39-15-72.73,29.06-63.66,61.2,10.14,36.65,57.38,44.72,78.84,19.52C215.9,225.64,213.74,176.85,182.15,165.4Zm-3.63,54.13c-5.36,1.52-7.49-7-2.17-8.55S183.84,218,178.52,219.53Zm17.31-2.1c-5.35,1.53-7.49-7-2.17-8.55S201.15,215.92,195.83,217.43Z"/><path class="cls-4" d="M343.07,167.72c-9.79-30.64-58.42-48.48-80.3-16.05-18.13,25.74,5.58,66.16,30.37,73C322.58,233.72,354.38,202.54,343.07,167.72ZM287.6,193.19c-4.92,1.4-7-6.84-2.1-8.23S292.49,191.8,287.6,193.19Zm11.56-12.79c-4.92,1.39-7-6.85-2.1-8.24S304.05,179,299.16,180.4Z"/><path class="cls-4" d="M285.48,164.61a26,26,0,1,0,32.17,17.93A26,26,0,0,0,285.48,164.61Zm1.41,34.73c-4.47,1.28-6.21-5.72-1.76-7S291.34,198.08,286.89,199.34Zm10.67-11.09c-4.47,1.27-6.21-5.72-1.76-7S302,187,297.56,188.25Z"/><path class="cls-5" d="M167.47,195.27a25.21,25.21,0,1,0,30.88,17.44A25.09,25.09,0,0,0,167.47,195.27Zm15.88,28.9c-4.47,1.27-6.21-5.72-1.76-7S187.8,222.9,183.35,224.17Zm9.75-6.23c-4.47,1.27-6.21-5.72-1.76-7S197.55,216.68,193.1,217.94Z"/><path class="cls-5" d="M293.09,163A25.21,25.21,0,1,0,324,180.45,25.08,25.08,0,0,0,293.09,163Zm-6.2,36.32c-4.47,1.28-6.21-5.72-1.76-7S291.34,198.08,286.89,199.34Zm10.67-11.09c-4.47,1.27-6.21-5.72-1.76-7S302,187,297.56,188.25Z"/><ellipse class="cls-4" cx="257.72" cy="248.55" rx="20.38" ry="13.13" transform="translate(-21.88 24.9) rotate(-5.31)"/><polygon class="cls-4" points="258.19 237.05 253.12 230.75 249.79 238.56 258.19 237.05"/><path class="cls-4" d="M307.08,312.61c-6.57,10-22.5,4.53-28.55-.15-.75-.58-1.47-1.2-2.16-1.84-36.75,1.33-80.7-33.75-79.65-35.76.88-1.68,46.31,31.24,84.36,21.78,27.89-6.93,22-42.74,32.23-64.77l-13,65.29C305.83,300.78,310.59,307.29,307.08,312.61Z"/></g></g></svg>