<svg xmlns="http://www.w3.org/2000/svg" width="25.95" height="21.647" viewBox="0 0 25.95 21.647">
  <path id="Op_component_2" data-name="Op component 2" d="M1394.558,57.629a.787.787,0,0,1,.582.919,1.015,1.015,0,0,1-1.015.643h-7.485a3.613,3.613,0,0,1-6.845,0h-7.486a1.015,1.015,0,0,1-1.015-.643.787.787,0,0,1,.582-.919c.092-.034,2.363-.9,2.511-2.762V48.959c0-3.837,3.961-6.958,8.83-6.958s8.83,3.121,8.83,6.958v5.908c.15,1.886,2.487,2.753,2.511,2.762Z" transform="translate(-1370.242 -41)" fill="none" stroke="#000" stroke-width="2"/>
</svg>
