<svg xmlns="http://www.w3.org/2000/svg" width="75" height="75" viewBox="0 0 75 75">
  <g id="Group_7907" data-name="Group 7907" transform="translate(-270 -72)">
    <circle id="Ellipse_244" data-name="Ellipse 244" cx="37.5" cy="37.5" r="37.5" transform="translate(270 72)" fill="#fff"/>
    <g id="Group_7868" data-name="Group 7868" transform="translate(284.344 79.761)">
      <g id="Group_31" data-name="Group 31">
        <path id="Path_17" data-name="Path 17" d="M73.041,0A12.952,12.952,0,0,1,86.082,13.041,13.041,13.041,0,1,1,73.041,0Zm0,4.18a8.777,8.777,0,0,0-8.694,8.861A8.777,8.777,0,0,0,73.041,21.9a8.861,8.861,0,0,0,0-17.722Z" transform="translate(-49.968)" fill="#b5b5b5"/>
        <path id="Path_18" data-name="Path 18" d="M46.312,189.24c0,2.675-4.347,2.675-4.347,0a18.871,18.871,0,0,0-37.618-2.174H36.281a2.09,2.09,0,1,1,0,4.18H2.174A2.073,2.073,0,0,1,0,189.24a23.156,23.156,0,1,1,46.312,0Z" transform="translate(0 -138.246)" fill="#b5b5b5"/>
      </g>
    </g>
  </g>
</svg>
