<svg xmlns="http://www.w3.org/2000/svg" width="96.329" height="110.239" viewBox="0 0 96.329 110.239">
  <g id="Group_8099" data-name="Group 8099" transform="translate(-297.344 -92.761)">
    <path id="Path_17" data-name="Path 17" d="M87.125,0A26.939,26.939,0,0,1,114.25,27.125,27.125,27.125,0,1,1,87.125,0Zm0,8.694A18.257,18.257,0,0,0,69.042,27.125,18.257,18.257,0,0,0,87.125,45.556a18.431,18.431,0,0,0,0-36.862Z" transform="translate(258.21 92.761)" fill="#b5b5b5"/>
    <path id="Path_18" data-name="Path 18" d="M96.329,214.338c0,5.564-9.042,5.564-9.042,0a39.251,39.251,0,0,0-78.246-4.521H75.463c5.912,0,5.912,8.694,0,8.694H4.521A4.312,4.312,0,0,1,0,214.338a48.165,48.165,0,1,1,96.329,0Z" transform="translate(297.344 -15.511)" fill="#b5b5b5"/>
  </g>
</svg>
