<svg id="Group_43" data-name="Group 43" xmlns="http://www.w3.org/2000/svg" width="19.125" height="20.258" viewBox="0 0 19.125 20.258">
  <path id="Path_6" data-name="Path 6" d="M70.618,70.446a.971.971,0,0,0-1.432,1.311l3.024,3.3a.971.971,0,0,0,1.432-1.311Z" transform="translate(-54.772 -55.114)"/>
  <path id="Path_7" data-name="Path 7" d="M27.17,18.95a.971.971,0,0,0-1.871-.517,6.489,6.489,0,1,1-.862-5.34.971.971,0,0,0,1.614-1.08A8.428,8.428,0,1,0,27.17,18.95Z" transform="translate(-10.599 -8.263)"/>
  <path id="Path_8" data-name="Path 8" d="M73.242,32.857a.971.971,0,1,0-1.891.439,2.527,2.527,0,0,1,.066.4l.015.153a.971.971,0,0,0,.964.867c.034,0,.07,0,.1,0a.971.971,0,0,0,.862-1.07l-.015-.138A4.111,4.111,0,0,0,73.242,32.857Z" transform="translate(-56.585 -26.318)"/>
</svg>
